<svg id="Group_3" data-name="Group 3" xmlns="http://www.w3.org/2000/svg" width="105" height="30.23" viewBox="0 0 105 30.23">
  <g id="Group_1" data-name="Group 1" transform="translate(34.581 7.805)">
    <path id="Path_1" data-name="Path 1" d="M233.939,68.609H229V65.94h12.816v2.669h-4.939v12.9h-2.937Z" transform="translate(-229 -65.94)" fill="#ff6956"/>
    <path id="Path_2" data-name="Path 2" d="M306.22,92.957h2.6v10.969h-2.559l-.133-1.6a4.169,4.169,0,0,1-3.559,1.936c-3.248.023-5.651-1.98-5.651-5.83a5.341,5.341,0,0,1,5.718-5.741,4.025,4.025,0,0,1,3.493,1.781Zm-6.587,5.473a3.142,3.142,0,0,0,3.248,3.337c4.271,0,4.271-6.652,0-6.652A3.123,3.123,0,0,0,299.633,98.43Z" transform="translate(-285.906 -88.351)" fill="#ff6956"/>
    <path id="Path_3" data-name="Path 3" d="M390.187,87.48l2,1.513-1.223,1.557a4.677,4.677,0,0,1,1.156,3.248,4.355,4.355,0,0,1-2.314,4.095,3.689,3.689,0,0,1,2.269,3.626c0,3.026-2.314,4.894-5.5,4.894s-5.562-1.936-5.562-4.894h2.692c0,1.424,1.312,2.358,2.87,2.358s2.781-.845,2.781-2.358-1.424-2.2-2.781-2.2c-3.426,0-5.562-2.092-5.562-5.518a5.35,5.35,0,0,1,5.562-5.562,4.374,4.374,0,0,1,2.514.623ZM383.712,93.8a2.865,2.865,0,1,0,5.718,0,2.868,2.868,0,1,0-5.718,0Z" transform="translate(-356.368 -83.987)" fill="#ff6956"/>
    <path id="Path_4" data-name="Path 4" d="M467.914,104.387V98.646c0-1.669-.911-2.937-2.648-2.937a2.885,2.885,0,0,0-2.8,3.07v5.606H459.77V93.4h2.424l.178,1.49a4.948,4.948,0,0,1,3.6-1.646c2.58,0,4.651,1.936,4.651,5.384v5.763Z" transform="translate(-422.348 -88.813)" fill="#ff6956"/>
    <path id="Path_5" data-name="Path 5" d="M540.924,99.075c.178,1.357,1.357,2.337,3.271,2.337a4.523,4.523,0,0,0,2.937-1.023l1.735,1.712a6.74,6.74,0,0,1-4.717,1.781c-3.782,0-6.029-2.337-6.029-5.851a5.489,5.489,0,0,1,5.83-5.741c3.671,0,5.963,2.269,5.539,6.787h-8.565Zm5.963-2.248c-.178-1.424-1.291-2.136-2.848-2.136a2.953,2.953,0,0,0-3.07,2.136Z" transform="translate(-487.992 -88.017)" fill="#ff6956"/>
    <path id="Path_6" data-name="Path 6" d="M617.251,75.27v3.115h3.026V80.72h-3.049v4.738a1.362,1.362,0,0,0,1.424,1.557,3.1,3.1,0,0,0,1.314-.334L620.721,89a6.074,6.074,0,0,1-2.248.467c-2.381.089-3.937-1.268-3.937-4.005V80.719H612.49V78.384h2.046V75.559Z" transform="translate(-550.302 -73.757)" fill="#ff6956"/>
  </g>
  <path id="Path_7" data-name="Path 7" d="M42.719,76.135a7.545,7.545,0,1,0-2.541-2.541L37.59,76.182h0l-2.57,2.57a14.777,14.777,0,0,0,2.541,2.541l5.158-5.158Zm3.9-10.391a3.944,3.944,0,1,1-3.944,3.944A3.944,3.944,0,0,1,46.624,65.744Z" transform="translate(-31.895 -54.96)" fill="#ff6956"/>
  <g id="Group_2" data-name="Group 2" transform="translate(0 0)">
    <path id="Path_8" data-name="Path 8" d="M30.479,17.81A14.725,14.725,0,0,0,18.873,41.6l2.567-2.567,0,0a11.105,11.105,0,0,1-1.662-3.409c-.006-.023-.013-.045-.019-.066-.034-.12-.066-.242-.1-.363-.008-.036-.016-.071-.024-.105-.042-.178-.079-.36-.114-.542-.015-.083-.031-.165-.045-.25s-.021-.148-.031-.222c-.013-.1-.026-.2-.037-.3-.008-.068-.015-.138-.021-.206-.01-.114-.019-.227-.026-.341,0-.057-.008-.114-.01-.17-.008-.172-.013-.345-.013-.521s0-.336.013-.5A11.146,11.146,0,0,1,30.471,21.407h.008A11.147,11.147,0,0,1,41.613,32.541v0A11.148,11.148,0,0,1,30.977,43.664c-.165.006-.331.013-.5.013a11.1,11.1,0,0,1-3.071-.433l-.43.43L24.6,46.047A14.73,14.73,0,1,0,30.479,17.81Z" transform="translate(-15.75 -17.81)" fill="#ff6956"/>
  </g>
</svg>
