<svg xmlns="http://www.w3.org/2000/svg" width="10" height="13.333" viewBox="0 0 10 13.333">
  <g id="padlock-unlock" transform="translate(-54.818)">
    <path id="Path_155" data-name="Path 155" d="M64.575,6.91a.8.8,0,0,0-.59-.243H57.6V3.889a2.141,2.141,0,0,1,.651-1.571,2.222,2.222,0,0,1,3.142,0,2.141,2.141,0,0,1,.651,1.571.563.563,0,0,0,.555.556h.556a.563.563,0,0,0,.555-.556,3.746,3.746,0,0,0-1.141-2.747,3.877,3.877,0,0,0-5.5,0,3.745,3.745,0,0,0-1.141,2.747V6.667h-.278a.83.83,0,0,0-.833.833v5a.83.83,0,0,0,.833.833h8.333a.83.83,0,0,0,.833-.833v-5A.8.8,0,0,0,64.575,6.91Z" fill="#1a1a1a"/>
  </g>
</svg>
