<svg
        xmlns="http://www.w3.org/2000/svg"
        xmlns:xlink="http://www.w3.org/1999/xlink"
        width="25px" height="27px" vieBox="0 0 25 27">
    <path fill-rule="evenodd"  fill="rgb(255, 105, 86)"
          d="M24.576,26.086 C24.321,26.331 23.985,26.466 23.631,26.466 C23.257,26.466 22.908,26.317 22.648,26.048 L16.440,19.591 C14.677,20.830 12.615,21.483 10.452,21.483 C4.689,21.483 -0.000,16.794 -0.000,11.030 C-0.000,5.267 4.689,0.578 10.452,0.578 C16.215,0.578 20.904,5.267 20.904,11.030 C20.904,13.497 20.036,15.867 18.452,17.750 L24.614,24.158 C25.135,24.700 25.118,25.564 24.576,26.086 ZM10.452,3.305 C6.192,3.305 2.727,6.770 2.727,11.030 C2.727,15.290 6.192,18.756 10.452,18.756 C14.712,18.756 18.178,15.290 18.178,11.030 C18.178,6.770 14.712,3.305 10.452,3.305 Z"/>
</svg>