<svg
        xmlns="http://www.w3.org/2000/svg"
        xmlns:xlink="http://www.w3.org/1999/xlink"
        width="30px" height="31px" viewBox="0 0 30 31">
    <path fill-rule="evenodd"  fill="rgb(195, 195, 195)"
          d="M14.729,23.071 C13.300,23.071 11.964,22.671 10.824,21.979 L5.666,27.137 C4.718,26.397 3.866,25.543 3.125,24.596 L5.695,22.026 L8.283,19.438 C7.589,18.298 7.190,16.961 7.190,15.533 C7.190,11.376 10.571,7.994 14.729,7.994 C18.885,7.994 22.268,11.376 22.268,15.533 C22.268,19.689 18.887,23.071 14.729,23.071 ZM14.729,11.587 C12.550,11.587 10.785,13.353 10.785,15.531 C10.785,17.709 12.551,19.475 14.729,19.475 C16.907,19.475 18.673,17.709 18.673,15.531 C18.673,13.353 16.907,11.587 14.729,11.587 Z"/>
    <path fill-rule="evenodd"  fill="rgb(195, 195, 195)"
          d="M14.729,0.803 C6.595,0.803 -0.000,7.397 -0.000,15.532 C-0.000,18.953 1.169,22.097 3.123,24.596 L5.690,22.029 L5.693,22.026 C4.957,21.004 4.390,19.856 4.031,18.617 C4.025,18.594 4.018,18.571 4.012,18.550 C3.978,18.431 3.945,18.309 3.916,18.187 C3.908,18.152 3.900,18.116 3.892,18.082 C3.849,17.903 3.812,17.722 3.778,17.540 C3.763,17.458 3.747,17.375 3.733,17.290 C3.721,17.216 3.711,17.143 3.702,17.068 C3.689,16.969 3.676,16.871 3.665,16.771 C3.657,16.703 3.650,16.634 3.644,16.566 C3.634,16.452 3.624,16.338 3.618,16.225 C3.614,16.168 3.610,16.112 3.608,16.055 C3.600,15.883 3.595,15.709 3.595,15.534 C3.595,15.366 3.600,15.199 3.608,15.031 C3.870,9.127 8.753,4.405 14.721,4.400 C14.724,4.400 14.726,4.400 14.729,4.400 C20.869,4.400 25.863,9.395 25.863,15.534 C25.863,15.536 25.863,15.537 25.863,15.539 C25.861,21.510 21.134,26.394 15.227,26.657 C15.061,26.663 14.896,26.670 14.729,26.670 C13.664,26.670 12.634,26.518 11.658,26.237 L11.228,26.667 L8.854,29.041 C10.654,29.826 12.640,30.265 14.729,30.265 C22.863,30.265 29.458,23.672 29.458,15.536 C29.456,7.397 22.863,0.803 14.729,0.803 Z"/>
</svg>