<svg xmlns="http://www.w3.org/2000/svg" width="16" height="16" viewBox="0 0 16 16">
  <path id="user" d="M16,8A8,8,0,1,0,2.6,13.893l-.008.007.259.219c.017.014.035.026.052.04.138.114.281.223.426.328l.142.1q.233.161.478.3l.107.062c.178.1.36.2.547.285l.041.019a7.928,7.928,0,0,0,1.935.612l.054.01c.211.036.424.065.639.085l.079.006c.215.018.432.029.652.029s.433-.011.646-.029l.081-.006q.321-.029.634-.083l.054-.01a7.928,7.928,0,0,0,1.907-.6l.067-.03q.269-.127.527-.272l.128-.074c.157-.092.31-.189.46-.291.054-.037.106-.075.16-.114.128-.092.253-.187.375-.286.027-.022.056-.041.083-.063l.266-.222-.008-.007A7.979,7.979,0,0,0,16,8ZM.582,8A7.418,7.418,0,1,1,12.92,13.546a2.18,2.18,0,0,0-.26-.156L10.2,12.158a.645.645,0,0,1-.358-.58v-.86c.057-.07.117-.15.179-.238a5.928,5.928,0,0,0,.761-1.49,1.056,1.056,0,0,0,.607-.957V7a1.058,1.058,0,0,0-.258-.689V4.955a2.346,2.346,0,0,0-.548-1.706A3.274,3.274,0,0,0,8,2.327a3.275,3.275,0,0,0-2.579.922,2.347,2.347,0,0,0-.548,1.706V6.312A1.06,1.06,0,0,0,4.615,7V8.033A1.058,1.058,0,0,0,5,8.854a5.466,5.466,0,0,0,.9,1.859v.842a.649.649,0,0,1-.338.57l-2.3,1.255a2.1,2.1,0,0,0-.219.138A7.4,7.4,0,0,1,.582,8Z" fill="#fed49a"/>
</svg>
