<svg
        xmlns="http://www.w3.org/2000/svg"
        xmlns:xlink="http://www.w3.org/1999/xlink"
        width="25px" height="25px"
        viewBox="0 0 25 25"
>
    <path fill-rule="evenodd" fill="none"
          d="M0.500,0.500 L24.500,0.500 L24.500,24.500 L0.500,24.500 L0.500,0.500 Z"/>
    <path fill-rule="evenodd" fill="rgb(26, 26, 26)"
          d="M12.500,21.500 C7.529,21.500 3.500,17.470 3.500,12.500 C3.500,7.529 7.529,3.500 12.500,3.500 C17.471,3.500 21.500,7.529 21.500,12.500 C21.500,17.470 17.471,21.500 12.500,21.500 ZM17.736,18.240 C16.757,16.580 15.072,15.462 13.163,15.204 C12.769,15.301 12.358,15.310 11.960,15.233 C10.028,15.502 8.349,16.696 7.460,18.432 L7.448,18.432 C10.430,20.985 14.851,20.902 17.736,18.240 ZM14.545,11.579 C14.545,10.225 13.629,9.125 12.500,9.125 C11.371,9.125 10.454,10.225 10.454,11.579 C10.396,12.637 11.038,13.608 12.034,13.969 C12.257,13.945 12.480,13.933 12.705,13.932 C12.819,13.932 12.930,13.940 13.040,13.944 C13.993,13.555 14.596,12.607 14.545,11.579 ZM10.193,5.077 C6.942,6.087 4.727,9.096 4.727,12.500 C4.726,14.328 5.372,16.098 6.552,17.495 C7.416,16.037 8.761,14.926 10.356,14.353 C9.624,13.617 9.217,12.618 9.227,11.579 C9.227,9.534 10.696,7.898 12.500,7.898 C14.304,7.898 15.772,9.534 15.772,11.579 C15.785,12.582 15.410,13.551 14.725,14.284 C16.309,14.850 17.670,15.910 18.607,17.307 C20.713,14.632 20.833,10.898 18.903,8.093 C16.974,5.289 13.443,4.066 10.193,5.077 Z"/>
</svg>
