<svg
        xmlns="http://www.w3.org/2000/svg"
        xmlns:xlink="http://www.w3.org/1999/xlink"
        width="1118px" height="217px"
        viewBox="0 0 1118 217"
>
    <path fill-rule="evenodd"  opacity="0.541" fill="rgb(230, 230, 230)"
          d="M6.000,12.000 C2.682,12.000 -0.000,9.318 -0.000,6.000 C-0.000,2.682 2.682,-0.000 6.000,-0.000 C9.318,-0.000 12.000,2.682 12.000,6.000 C12.000,9.318 9.318,12.000 6.000,12.000 Z"/>
    <path fill-rule="evenodd"  opacity="0.541" fill="rgb(230, 230, 230)"
          d="M6.000,68.000 C2.682,68.000 -0.000,65.318 -0.000,62.000 C-0.000,58.682 2.682,56.000 6.000,56.000 C9.318,56.000 12.000,58.682 12.000,62.000 C12.000,65.318 9.318,68.000 6.000,68.000 Z"/>
    <path fill-rule="evenodd"  opacity="0.541" fill="rgb(230, 230, 230)"
          d="M6.000,40.000 C2.682,40.000 -0.000,37.318 -0.000,34.000 C-0.000,30.682 2.682,28.000 6.000,28.000 C9.318,28.000 12.000,30.682 12.000,34.000 C12.000,37.318 9.318,40.000 6.000,40.000 Z"/>
    <path fill-rule="evenodd"  opacity="0.541" fill="rgb(230, 230, 230)"
          d="M6.000,96.000 C2.682,96.000 -0.000,93.318 -0.000,90.000 C-0.000,86.682 2.682,84.000 6.000,84.000 C9.318,84.000 12.000,86.682 12.000,90.000 C12.000,93.318 9.318,96.000 6.000,96.000 Z"/>
    <path fill-rule="evenodd"  opacity="0.541" fill="rgb(230, 230, 230)"
          d="M90.000,12.000 C86.682,12.000 84.000,9.318 84.000,6.000 C84.000,2.682 86.682,-0.000 90.000,-0.000 C93.318,-0.000 96.000,2.682 96.000,6.000 C96.000,9.318 93.318,12.000 90.000,12.000 Z"/>
    <path fill-rule="evenodd"  opacity="0.541" fill="rgb(230, 230, 230)"
          d="M90.000,40.000 C86.682,40.000 84.000,37.318 84.000,34.000 C84.000,30.682 86.682,28.000 90.000,28.000 C93.318,28.000 96.000,30.682 96.000,34.000 C96.000,37.318 93.318,40.000 90.000,40.000 Z"/>
    <path fill-rule="evenodd"  opacity="0.541" fill="rgb(230, 230, 230)"
          d="M62.000,12.000 C58.682,12.000 56.000,9.318 56.000,6.000 C56.000,2.682 58.682,-0.000 62.000,-0.000 C65.318,-0.000 68.000,2.682 68.000,6.000 C68.000,9.318 65.318,12.000 62.000,12.000 Z"/>
    <path fill-rule="evenodd"  opacity="0.541" fill="rgb(230, 230, 230)"
          d="M62.000,68.000 C58.682,68.000 56.000,65.318 56.000,62.000 C56.000,58.682 58.682,56.000 62.000,56.000 C65.318,56.000 68.000,58.682 68.000,62.000 C68.000,65.318 65.318,68.000 62.000,68.000 Z"/>
    <path fill-rule="evenodd"  opacity="0.541" fill="rgb(230, 230, 230)"
          d="M62.000,40.000 C58.682,40.000 56.000,37.318 56.000,34.000 C56.000,30.682 58.682,28.000 62.000,28.000 C65.318,28.000 68.000,30.682 68.000,34.000 C68.000,37.318 65.318,40.000 62.000,40.000 Z"/>
    <path fill-rule="evenodd"  opacity="0.541" fill="rgb(230, 230, 230)"
          d="M62.000,96.000 C58.682,96.000 56.000,93.318 56.000,90.000 C56.000,86.682 58.682,84.000 62.000,84.000 C65.318,84.000 68.000,86.682 68.000,90.000 C68.000,93.318 65.318,96.000 62.000,96.000 Z"/>
    <path fill-rule="evenodd"  opacity="0.541" fill="rgb(230, 230, 230)"
          d="M118.000,12.000 C114.682,12.000 112.000,9.318 112.000,6.000 C112.000,2.682 114.682,-0.000 118.000,-0.000 C121.318,-0.000 124.000,2.682 124.000,6.000 C124.000,9.318 121.318,12.000 118.000,12.000 Z"/>
    <path fill-rule="evenodd"  opacity="0.541" fill="rgb(230, 230, 230)"
          d="M118.000,40.000 C114.682,40.000 112.000,37.318 112.000,34.000 C112.000,30.682 114.682,28.000 118.000,28.000 C121.318,28.000 124.000,30.682 124.000,34.000 C124.000,37.318 121.318,40.000 118.000,40.000 Z"/>
    <path fill-rule="evenodd"  opacity="0.541" fill="rgb(244, 244, 244)"
          d="M1112.000,161.000 C1108.682,161.000 1106.000,158.318 1106.000,155.000 C1106.000,151.682 1108.682,149.000 1112.000,149.000 C1115.318,149.000 1118.000,151.682 1118.000,155.000 C1118.000,158.318 1115.318,161.000 1112.000,161.000 Z"/>
    <path fill-rule="evenodd"  opacity="0.541" fill="rgb(244, 244, 244)"
          d="M1112.000,217.000 C1108.682,217.000 1106.000,214.318 1106.000,211.000 C1106.000,207.682 1108.682,205.000 1112.000,205.000 C1115.318,205.000 1118.000,207.682 1118.000,211.000 C1118.000,214.318 1115.318,217.000 1112.000,217.000 Z"/>
    <path fill-rule="evenodd"  opacity="0.541" fill="rgb(244, 244, 244)"
          d="M1112.000,189.000 C1108.682,189.000 1106.000,186.318 1106.000,183.000 C1106.000,179.682 1108.682,177.000 1112.000,177.000 C1115.318,177.000 1118.000,179.682 1118.000,183.000 C1118.000,186.318 1115.318,189.000 1112.000,189.000 Z"/>
    <path fill-rule="evenodd"  opacity="0.541" fill="rgb(230, 230, 230)"
          d="M34.000,12.000 C30.682,12.000 28.000,9.318 28.000,6.000 C28.000,2.682 30.682,-0.000 34.000,-0.000 C37.317,-0.000 40.000,2.682 40.000,6.000 C40.000,9.318 37.317,12.000 34.000,12.000 Z"/>
    <path fill-rule="evenodd"  opacity="0.541" fill="rgb(230, 230, 230)"
          d="M34.000,68.000 C30.682,68.000 28.000,65.318 28.000,62.000 C28.000,58.682 30.682,56.000 34.000,56.000 C37.317,56.000 40.000,58.682 40.000,62.000 C40.000,65.318 37.317,68.000 34.000,68.000 Z"/>
    <path fill-rule="evenodd"  opacity="0.541" fill="rgb(230, 230, 230)"
          d="M34.000,40.000 C30.682,40.000 28.000,37.318 28.000,34.000 C28.000,30.682 30.682,28.000 34.000,28.000 C37.317,28.000 40.000,30.682 40.000,34.000 C40.000,37.318 37.317,40.000 34.000,40.000 Z"/>
    <path fill-rule="evenodd"  opacity="0.541" fill="rgb(230, 230, 230)"
          d="M34.000,96.000 C30.682,96.000 28.000,93.318 28.000,90.000 C28.000,86.682 30.682,84.000 34.000,84.000 C37.317,84.000 40.000,86.682 40.000,90.000 C40.000,93.318 37.317,96.000 34.000,96.000 Z"/>
</svg>