<svg xmlns="http://www.w3.org/2000/svg" width="29.458" height="29.462" viewBox="0 0 29.458 29.462">
  <g id="Group_145" data-name="Group 145" transform="translate(-110 -1537.804)">
    <path id="Path_15" data-name="Path 15" d="M42.719,76.135a7.545,7.545,0,1,0-2.541-2.541L37.59,76.182h0l-2.57,2.57a14.777,14.777,0,0,0,2.541,2.541l5.158-5.158Zm3.9-10.391a3.944,3.944,0,1,1-3.944,3.944A3.944,3.944,0,0,1,46.624,65.744Z" transform="translate(78.105 1482.844)" fill="#c3c3c3"/>
    <g id="Group_10" data-name="Group 10" transform="translate(110 1537.804)">
      <path id="Path_8" data-name="Path 8" d="M30.479,17.81A14.725,14.725,0,0,0,18.873,41.6l2.567-2.567,0,0a11.105,11.105,0,0,1-1.662-3.409c-.006-.023-.013-.045-.019-.066-.034-.12-.066-.242-.1-.363-.008-.036-.016-.071-.024-.105-.042-.178-.079-.36-.114-.542-.015-.083-.031-.165-.045-.25s-.021-.148-.031-.222c-.013-.1-.026-.2-.037-.3-.008-.068-.015-.138-.021-.206-.01-.114-.019-.227-.026-.341,0-.057-.008-.114-.01-.17-.008-.172-.013-.345-.013-.521s0-.336.013-.5A11.146,11.146,0,0,1,30.471,21.407h.008A11.147,11.147,0,0,1,41.613,32.541v0A11.148,11.148,0,0,1,30.977,43.664c-.165.006-.331.013-.5.013a11.1,11.1,0,0,1-3.071-.433l-.43.43L24.6,46.047A14.73,14.73,0,1,0,30.479,17.81Z" transform="translate(-15.75 -17.81)" fill="#c3c3c3"/>
    </g>
  </g>
</svg>
