<svg xmlns="http://www.w3.org/2000/svg" width="24" height="24" viewBox="0 0 24 24">
  <g id="Group_227" data-name="Group 227" transform="translate(-314 -587)">
    <circle id="Ellipse_119" data-name="Ellipse 119" cx="12" cy="12" r="12" transform="translate(314 587)" fill="#96a5ff" opacity="0.3"/>
    <g id="tag_1_" data-name="tag (1)" transform="translate(320 593)">
      <path id="Path_152" data-name="Path 152" d="M10.873,0H7.491A3.136,3.136,0,0,0,5.567.8L.329,6.035a1.131,1.131,0,0,0,0,1.594L4.37,11.671a1.13,1.13,0,0,0,1.594,0L11.2,6.433A3.137,3.137,0,0,0,12,4.509V1.127A1.131,1.131,0,0,0,10.873,0Zm-1.5,3.75A1.125,1.125,0,1,1,10.5,2.625,1.125,1.125,0,0,1,9.375,3.75Z" fill="#96a5ff"/>
    </g>
  </g>
</svg>
