<svg
        xmlns="http://www.w3.org/2000/svg"
        xmlns:xlink="http://www.w3.org/1999/xlink"
        width="40px" height="27px"
        viewBox="0 0 40 27"
>
    <path fill-rule="evenodd"  fill="rgb(255, 105, 86)"
          d="M39.697,23.950 C39.553,23.804 39.368,23.732 39.142,23.732 L15.983,23.732 C15.758,23.732 15.573,23.805 15.428,23.950 C15.284,24.094 15.212,24.279 15.212,24.504 L15.212,26.048 C15.212,26.273 15.284,26.458 15.428,26.603 C15.573,26.747 15.758,26.820 15.983,26.820 L39.142,26.820 C39.368,26.820 39.553,26.747 39.697,26.603 C39.841,26.458 39.914,26.273 39.914,26.048 L39.914,24.504 C39.914,24.279 39.842,24.094 39.697,23.950 Z"/>
    <path fill-rule="evenodd"  fill="rgb(255, 105, 86)"
          d="M2.643,1.128 C2.482,0.967 2.297,0.886 2.088,0.886 C1.878,0.886 1.694,0.967 1.533,1.128 L0.327,2.334 C0.166,2.495 0.086,2.680 0.086,2.889 C0.086,3.098 0.166,3.283 0.327,3.444 L9.808,12.924 L0.327,22.405 C0.166,22.566 0.086,22.751 0.086,22.960 C0.086,23.169 0.166,23.354 0.327,23.515 L1.533,24.721 C1.694,24.882 1.878,24.962 2.088,24.962 C2.296,24.962 2.482,24.882 2.643,24.721 L13.885,13.479 C14.045,13.318 14.125,13.133 14.125,12.924 C14.125,12.715 14.045,12.530 13.885,12.370 L2.643,1.128 Z"/>
</svg>