<svg xmlns="http://www.w3.org/2000/svg" width="14.724" height="19.869" viewBox="0 0 14.724 19.869">
  <g id="Group_190" data-name="Group 190" transform="translate(0 0)">
    <g id="Group_189" data-name="Group 189" transform="translate(0)">
      <path id="Path_137" data-name="Path 137" d="M113.672,95.5a7.362,7.362,0,1,0-11.38,6.169v2.319a4.018,4.018,0,0,0,8.037,0v-2.319A7.387,7.387,0,0,0,113.672,95.5Zm-4.763,8.488a2.6,2.6,0,0,1-5.2,0v-.593h5.2Zm.356-3.332a.71.71,0,0,0-.356.615v.7h-1.89V98.3a2.3,2.3,0,0,0,1.589-2.186.71.71,0,0,0-1.419,0,.88.88,0,1,1-1.76,0,.71.71,0,0,0-1.419,0A2.3,2.3,0,0,0,105.6,98.3v3.669h-1.89v-.7a.71.71,0,0,0-.356-.615,5.943,5.943,0,1,1,5.911,0Z" transform="translate(-98.948 -88.136)" fill="#f1ceda"/>
    </g>
  </g>
</svg>
