<svg
        xmlns="http://www.w3.org/2000/svg"
        xmlns:xlink="http://www.w3.org/1999/xlink"
        width="24px" height="24px" viewBox="0 0 24 24">
    <path fill-rule="evenodd"  fill="rgb(251, 187, 0)"
          d="M5.318,14.503 L4.483,17.622 L1.430,17.687 C0.517,15.994 -0.001,14.058 -0.001,12.000 C-0.001,10.010 0.484,8.134 1.341,6.481 L1.342,6.481 L4.060,6.979 L5.251,9.681 C5.002,10.408 4.866,11.188 4.866,12.000 C4.866,12.881 5.026,13.725 5.318,14.503 Z"/>
    <path fill-rule="evenodd"  fill="rgb(81, 142, 248)"
          d="M23.790,9.758 C23.928,10.484 24.000,11.234 24.000,12.000 C24.000,12.859 23.910,13.697 23.738,14.505 C23.153,17.256 21.627,19.658 19.512,21.358 L19.512,21.357 L16.087,21.182 L15.603,18.157 C17.006,17.334 18.103,16.047 18.680,14.505 L12.263,14.505 L12.263,9.758 L18.774,9.758 L23.790,9.758 L23.790,9.758 Z"/>
    <path fill-rule="evenodd"  fill="rgb(40, 180, 70)"
          d="M19.512,21.357 L19.512,21.358 C17.456,23.011 14.843,24.000 12.000,24.000 C7.430,24.000 3.457,21.446 1.430,17.687 L5.318,14.503 C6.332,17.208 8.941,19.133 12.000,19.133 C13.315,19.133 14.546,18.778 15.603,18.157 L19.512,21.357 Z"/>
    <path fill-rule="evenodd"  fill="rgb(241, 67, 54)"
          d="M19.659,2.762 L15.772,5.945 C14.678,5.261 13.385,4.866 12.000,4.866 C8.872,4.866 6.214,6.880 5.251,9.681 L1.342,6.481 L1.341,6.481 C3.339,2.631 7.362,-0.000 12.000,-0.000 C14.911,-0.000 17.581,1.037 19.659,2.762 Z"/>
</svg>