<svg
        xmlns="http://www.w3.org/2000/svg"
        xmlns:xlink="http://www.w3.org/1999/xlink"
        width="20px" height="20px" viewBox="0 0 20 20">
    <path fill-rule="evenodd"  fill="rgb(26, 26, 26)"
          d="M4.500,9.500 L5.900,8.100 L8.999,11.200 L17.600,2.600 L19.000,4.000 L8.999,14.000 L4.500,9.500 ZM10.000,2.000 C5.600,2.000 2.000,5.600 2.000,10.000 C2.000,14.400 5.600,18.000 10.000,18.000 C14.400,18.000 18.000,14.400 18.000,10.000 L20.000,10.000 C20.000,15.500 15.500,20.000 10.000,20.000 C4.500,20.000 -0.000,15.500 -0.000,10.000 C-0.000,4.500 4.500,-0.000 10.000,-0.000 C11.300,-0.000 12.600,0.300 13.800,0.700 L12.200,2.300 C11.500,2.100 10.800,2.000 10.000,2.000 Z"/>
</svg>