<svg
        xmlns="http://www.w3.org/2000/svg"
        xmlns:xlink="http://www.w3.org/1999/xlink"
        width="21px" height="12px" viewBox="0 0 21 12">
    <path fill-rule="evenodd"  fill="rgb(26, 26, 26)"
          d="M0.428,5.836 C0.360,5.506 0.457,5.163 0.690,4.919 L4.995,0.441 C5.248,0.162 5.633,0.043 6.000,0.130 C6.366,0.217 6.656,0.496 6.757,0.859 C6.858,1.222 6.753,1.611 6.484,1.874 L3.859,4.630 L19.373,4.630 C19.944,4.630 20.407,5.093 20.407,5.663 C20.407,6.234 19.944,6.697 19.373,6.697 L3.728,6.697 L6.629,9.356 C6.959,9.584 7.128,9.984 7.060,10.381 C6.992,10.777 6.700,11.098 6.312,11.204 C5.923,11.309 5.510,11.180 5.250,10.872 L0.773,6.738 C0.512,6.515 0.383,6.175 0.428,5.836 Z"/>
</svg>