<svg
        xmlns="http://www.w3.org/2000/svg"
        xmlns:xlink="http://www.w3.org/1999/xlink"
        width="13px" height="12px"
        viewBox="0 0 13 12"
>
    <path fill-rule="evenodd"  fill="rgb(150, 165, 255)"
          d="M12.278,-0.000 L1.252,-0.000 C0.990,-0.000 0.765,0.225 0.765,0.487 L0.765,11.475 C0.765,11.775 0.990,12.000 1.252,12.000 L7.140,12.000 L7.140,7.500 L5.640,7.500 L5.640,5.625 L7.140,5.625 L7.140,4.125 C7.140,2.587 8.115,1.800 9.503,1.800 C10.178,1.800 10.740,1.875 10.890,1.875 L10.890,3.487 L9.915,3.487 C9.165,3.487 8.978,3.862 8.978,4.387 L8.978,5.625 L10.853,5.625 L10.478,7.500 L8.978,7.500 L9.015,12.000 L12.240,12.000 C12.503,12.000 12.728,11.775 12.728,11.512 L12.728,0.487 C12.765,0.225 12.540,-0.000 12.278,-0.000 Z"/>
</svg>