<?xml version="1.0" encoding="UTF-8"?>
<svg width="34px" height="34px" viewBox="0 0 34 34" version="1.1" xmlns="http://www.w3.org/2000/svg" xmlns:xlink="http://www.w3.org/1999/xlink">
    <!-- Generator: Sketch 52.6 (67491) - http://www.bohemiancoding.com/sketch -->
    <title>Group</title>
    <desc>Created with Sketch.</desc>
    <g id="stuff" stroke="none" stroke-width="1" fill="none" fill-rule="evenodd">
        <g id="Tagnet" fill="#BD10E0">
            <g id="Group">
                <path d="M16.6929,12.2224 C19.1619,12.2224 21.1629,14.2234 21.1629,16.6924 C21.1629,19.1614 19.1619,21.1624 16.6929,21.1624 C14.2239,21.1624 12.2229,19.1614 12.2229,16.6924 C12.2229,14.2234 14.2239,12.2224 16.6929,12.2224 Z M12.2669,23.9994 C13.5589,24.7844 15.0739,25.2374 16.6929,25.2374 C21.4039,25.2374 25.2369,21.4044 25.2369,16.6924 C25.2369,11.9814 21.4039,8.1484 16.6929,8.1484 C11.9809,8.1484 8.1489,11.9814 8.1489,16.6924 C8.1489,18.3114 8.6009,19.8264 9.3859,21.1184 L6.4519,24.0524 L3.5399,26.9644 C4.3799,28.0384 5.3469,29.0054 6.4209,29.8454 L12.2669,23.9994 Z" id="Fill-12-Copy"></path>
                <path d="M16.6924,0.0002 C7.4734,0.0002 0.0004,7.4732 0.0004,16.6922 C0.0004,20.5682 1.3244,24.1312 3.5404,26.9642 L6.4484,24.0562 L6.4524,24.0522 C5.6184,22.8952 4.9754,21.5922 4.5684,20.1892 C4.5614,20.1642 4.5544,20.1392 4.5474,20.1132 C4.5094,19.9772 4.4724,19.8402 4.4384,19.7022 C4.4284,19.6622 4.4204,19.6222 4.4104,19.5822 C4.3624,19.3782 4.3204,19.1742 4.2824,18.9672 C4.2654,18.8732 4.2474,18.7792 4.2324,18.6842 C4.2184,18.6002 4.2084,18.5162 4.1964,18.4322 C4.1814,18.3202 4.1664,18.2082 4.1534,18.0962 C4.1454,18.0182 4.1374,17.9402 4.1304,17.8622 C4.1184,17.7332 4.1094,17.6052 4.1004,17.4762 C4.0964,17.4112 4.0924,17.3472 4.0884,17.2822 C4.0804,17.0862 4.0744,16.8902 4.0744,16.6922 C4.0744,16.5012 4.0804,16.3122 4.0884,16.1242 C4.3874,9.4322 9.9204,4.0792 16.6834,4.0742 C16.6864,4.0742 16.6894,4.0742 16.6924,4.0742 C23.6504,4.0742 29.3114,9.7342 29.3114,16.6922 L29.3114,16.6972 C29.3084,23.4642 23.9524,29.0002 17.2564,29.2962 C17.0694,29.3052 16.8814,29.3112 16.6924,29.3112 C15.4844,29.3112 14.3174,29.1382 13.2114,28.8202 L12.7254,29.3072 L10.0334,31.9982 C12.0734,32.8882 14.3244,33.3852 16.6924,33.3852 C25.9114,33.3852 33.3854,25.9122 33.3854,16.6922 C33.3854,7.4732 25.9114,0.0002 16.6924,0.0002" id="Fill-14-Copy"></path>
            </g>
        </g>
    </g>
</svg>