<svg
        xmlns="http://www.w3.org/2000/svg"
        xmlns:xlink="http://www.w3.org/1999/xlink"
        width="16px" height="12px"
        viewBox="0 0 16 12"
>
    <path fill-rule="evenodd"  fill="rgb(150, 165, 255)"
          d="M15.234,1.397 C14.693,1.623 14.153,1.803 13.521,1.848 C14.153,1.487 14.603,0.901 14.829,0.225 C14.243,0.586 13.611,0.811 12.935,0.946 C12.394,0.360 11.628,-0.000 10.817,-0.000 C9.194,-0.000 7.842,1.307 7.842,2.975 C7.842,3.200 7.887,3.426 7.932,3.651 C5.453,3.516 3.289,2.344 1.802,0.541 C1.532,0.991 1.396,1.487 1.396,2.028 C1.396,3.065 1.937,3.966 2.703,4.507 C2.208,4.507 1.756,4.372 1.351,4.147 L1.351,4.192 C1.351,5.634 2.388,6.806 3.740,7.077 C3.470,7.122 3.244,7.167 2.974,7.167 C2.794,7.167 2.613,7.167 2.433,7.122 C2.794,8.294 3.920,9.150 5.183,9.195 C4.191,10.007 2.884,10.457 1.486,10.457 C1.261,10.457 0.990,10.457 0.765,10.412 C2.117,11.224 3.695,11.719 5.363,11.719 C10.817,11.719 13.792,7.212 13.792,3.290 C13.792,3.155 13.792,3.020 13.792,2.930 C14.333,2.479 14.829,1.983 15.234,1.397 Z"/>
</svg>